<svg xmlns="http://www.w3.org/2000/svg" viewBox="0 0 959.91 959.91" shape-rendering="geometricPrecision" text-rendering="geometricPrecision" image-rendering="optimizeQuality" fill-rule="evenodd" clip-rule="evenodd"><path d="M479.96 0c265.07 0 479.95 214.88 479.95 479.96 0 265.07-214.88 479.95-479.95 479.95C214.88 959.91 0 745.03 0 479.96 0 214.88 214.88 0 479.96 0z" fill="#d61c1d"/><path d="M203.42 556.76c-16.65 9.64 2.68 37 7.76 44.59 8.6 12.84 17.06 25.49 25.81 37.99 17.63 25.2 34.54 50.43 52.01 76.65 9.84 14.76 15.47 25.68 29.2 34.59 9.54 6.18 73.78 30.59 90.84 37.87 18.36 7.83 32.41 10.74 54.36 6.68 34.51-6.38 70.04-15.55 104.32-23.3 35.21-7.95 69.74-16.4 105.29-23.46 20.92-4.15 13.83-7.68 14.67-48.72.43-20.96.77-44.1.29-64.99-.44-18.87-16.68-24.75-32.95-30.77-81.12-30.02-70.61-23.17-142.92 11.5-23.56 11.3-23.69 10.17-52.54 8.98-14.32-.58-79.67-5.26-91.12.36-6.73 3.3-12.29 10.64-10.27 20.96 3.41 17.5 27.14 17.52 45.13 19.66 21.65 2.58 100.46 10.7 114.8 14.05 23.72 5.53 9.77 26.55-13.76 24.21l-115.81-11.73c-24.21-2.47-33.65-.96-50.96-14-12.88-9.71-21.91-18.84-31.54-32.2-12.3-17.07-28.45-38.99-42.51-53.75-5.82-6.11-26.32-24.93-34.55-30.34-4.5-2.96-19.66-8.24-25.55-4.83zm508.94 38.26c-7.19 4.3-4.99 16.59-4.99 25.79v93.91c0 72.54-7.12 73.41 21.15 73.32 6.57-.01 25.57 1.08 30.09-1.52 6.27-3.62 4.12-17.55 4.12-25.43v-93.91c0-20.19.9-42.48 0-62.41-.6-13.24-7.89-11.24-20.3-11.21-6.94.03-25.16-1.47-30.07 1.46zm-467.64-48.84c.42 7.76 13.96 18.29 21.58 27.9l46.57 53.13c7.64 7.82 17.28 23.76 25.33 24.84 3.09-4.66 5.42-14.73 5.83-21.98.47-8.3-5.4-13.41-9.51-18.7-12.4-15.96-13.71-16.15-26.09-29.55-12.36-13.38-27.48-31.47-44.58-38.92-10.36-4.51-11-1.96-19.13 3.28zm53.11 6.23c3.19 4.91 10.64 11.04 14.82 14.75 10.87 9.62 40.43 40.73 47.21 44.49l23.27-8.36c.23-.13.6-.39.79-.5.19-.11.54-.34.79-.53-5.14-8.98-46.11-46.47-61.07-55.38-11.01-6.57-21.98-4.7-25.81 5.53zm196.93-186.09v93.3c14.95-2.83 26.48-8.57 34.68-17.22 8.12-8.72 12.22-18.74 12.22-30.3 0-12.35-3.95-21.87-11.92-28.63-7.89-6.76-19.58-12.5-34.98-17.15zm-28.23-63.21v-81.53c-12.45 3.56-22.16 8.21-29.15 14.02-6.98 5.81-10.47 14.68-10.47 26.45 0 11.19 3.26 19.69 9.79 25.43 6.53 5.74 16.47 10.97 29.83 15.63zm28.23-146.06v23.03c15.86 1.6 29.52 4.73 40.82 9.38 11.39 4.72 21.25 11.77 29.75 21.29 6.68 7.27 11.84 14.75 15.48 22.38 3.65 7.7 5.47 14.68 5.47 21.07 0 7.12-2.73 13.3-8.12 18.46-5.47 5.16-11.99 7.77-19.73 7.77-14.57 0-24.06-7.55-28.31-22.59-4.93-17.73-16.7-29.58-35.36-35.39v88.58c18.36 4.79 33.08 9.22 43.94 13.22 10.92 3.92 20.71 9.66 29.29 17.22 9.18 7.78 16.31 17.15 21.32 27.98 4.94 10.9 7.44 22.74 7.44 35.68 0 16.2-3.95 31.31-11.91 45.41-7.97 14.17-19.66 25.65-35.06 34.66-15.49 8.94-33.78 14.24-55.02 15.91l-.29 35.08c-.07 8.36.58 14.45-1.13 18.31-1.71 3.84-6.99 8.21-12.83 8.21-5.31 0-10.51-4.7-12.68-7.84-2.15-3.11-1.3-12.49-1.3-19.03v-34.29c-17.31-1.82-32.49-5.74-45.46-11.7-12.98-5.96-23.83-13.37-32.48-22.23-8.65-8.94-15.1-18.17-19.2-27.69-4.18-9.59-6.23-19.04-6.23-28.27 0-6.75 2.74-12.93 8.35-18.38 5.54-5.45 12.45-8.21 20.72-8.21 6.68 0 12.29 1.45 16.92 4.43 4.56 2.98 7.74 7.2 9.57 12.57 3.94 11.63 7.43 20.57 10.39 26.74 3.04 6.18 7.52 11.85 13.51 16.93 6 5.09 13.96 9.02 23.91 11.7v-98.96c-19.89-5.31-36.43-11.12-49.79-17.59-13.35-6.47-24.21-15.62-32.48-27.54-8.27-11.92-12.44-27.25-12.44-46 0-24.41 8.12-44.47 24.36-60.02 16.24-15.62 39.69-24.7 70.35-27.25v-22.59c0-11.92 4.7-17.88 14.03-17.88 9.49 0 14.2 5.81 14.2 17.44z" fill="#fff"/></svg>