<svg id="Layer_1" data-name="Layer 1" xmlns="http://www.w3.org/2000/svg" viewBox="0 0 1366.4857 395.6379"><defs><style>.cls-1{fill:none;stroke:#000;stroke-linecap:round;stroke-miterlimit:10;stroke-width:1.9843px;}.cls-2{fill:#037dca;}.cls-3{fill:#e10015;}</style></defs><title>Logo Dauthau.info slogan tiếng Việt</title><line class="cls-1" x1="14.951" y1="290.5503" x2="1351.9877" y2="290.5503"/><path d="M105.5375,334.571q-1.0135-9.0264-11.2109-9.0263a13.6887,13.6887,0,0,0-7.252,1.7617q-2.8827,1.7622-2.8823,5.7812a4.6822,4.6822,0,0,0,1.5835,3.6475,10.743,10.743,0,0,0,4.1489,2.1943,55.9956,55.9956,0,0,0,5.6372,1.36q3.0711.5888,6.1753,1.4218a29.5192,29.5192,0,0,1,5.669,2.1329,10.3971,10.3971,0,0,1,4.1484,3.8027,11.0494,11.0494,0,0,1,1.5835,6.0273,11.4029,11.4029,0,0,1-5.7637,10.14,21.6315,21.6315,0,0,1-5.6372,2.2256,26.3272,26.3272,0,0,1-6.27.7422q-8.1078,0-13.396-3.9571-5.2895-3.9551-5.2885-11.5615h5.7a9.1067,9.1067,0,0,0,3.8,7.9453,15.8165,15.8165,0,0,0,9.374,2.6895,16.4985,16.4985,0,0,0,8.1391-1.8555q3.3252-1.8545,3.3252-6.1826a5.5773,5.5773,0,0,0-1.5835-4.08,10.0855,10.0855,0,0,0-4.1484-2.4424,50.4045,50.4045,0,0,0-5.6372-1.4521q-3.0732-.6181-6.1758-1.3916a32.3389,32.3389,0,0,1-5.6684-1.9473,10.02,10.02,0,0,1-4.149-3.4619,9.5351,9.5351,0,0,1-1.5835-5.5645,10.9373,10.9373,0,0,1,4.814-9.6142A19.97,19.97,0,0,1,94.58,320.5984q7.347,0,11.876,3.4931t4.7822,10.48Z"/><path d="M126.7553,328.08H121.372v-6.4307h5.3833Zm-5.3833,5.749h5.3833v31.9639H121.372Z"/><path d="M164.5678,355.6531a12.854,12.854,0,0,1-4.7187,8.0683,14.9621,14.9621,0,0,1-9.2788,2.751q-7.5388,0-11.4961-4.544-3.96-4.544-4.212-12.21a16.9035,16.9035,0,0,1,4.3384-11.9326,14.3833,14.3833,0,0,1,11.0528-4.6983,14.7646,14.7646,0,0,1,6.017,1.1738,12.3044,12.3044,0,0,1,4.3072,3.03,16.2416,16.2416,0,0,1,2.7236,4.3272,21.14,21.14,0,0,1,1.4883,4.915,22.1662,22.1662,0,0,1,.2851,4.8535H140.5624a10.5961,10.5961,0,0,0,2.47,7.4805q2.5964,3.0307,7.7275,3.03,7.0927,0,8.4873-6.2451ZM146.643,320.5984h5.8906l6.5874,8.8408H153.8l-4.37-5.9346-4.4336,5.9346h-4.8774Zm12.731,26.1523a9.6194,9.6194,0,0,0-2.8819-6.43,8.9524,8.9524,0,0,0-6.5552-2.5967,8.7919,8.7919,0,0,0-6.5874,2.5967,9.818,9.818,0,0,0-2.7871,6.43Z"/><path d="M199.2768,365.7927H194.21v-5.0693h-.127q-3.2937,5.7495-10.6406,5.749-6.1443,0-8.7095-3.0293t-2.5649-8.5938V333.8288h5.3838v21.6387a6.2627,6.2627,0,0,0,1.7734,4.6992,6.6815,6.6815,0,0,0,4.877,1.7315q4.7505,0,7.2207-2.752a10.4587,10.4587,0,0,0,2.47-7.2646V333.8288h5.3838Z"/><path d="M228.2226,333.8288h5.3838v4.3282h.1264q2.5328-5.0683,10.4512-5.0694,7.22,0,11.1475,4.8223a18.3766,18.3766,0,0,1,3.9272,11.9941q0,7.2334-3.8637,11.9014t-11.0845,4.667a16.3716,16.3716,0,0,1-5.9854-1.1738,9.0634,9.0634,0,0,1-4.5923-3.7715h-.1264v16.4453h-5.3838Zm25.3354,15.7041a13.5168,13.5168,0,0,0-2.5966-8.3466,8.8455,8.8455,0,0,0-7.5376-3.462q-5.0678,0-7.5371,3.5235a14.4865,14.4865,0,0,0-2.47,8.5322,14.1721,14.1721,0,0,0,2.565,8.625q2.5656,3.4937,7.7593,3.4932,5.1306,0,7.4741-3.5557A15.6721,15.6721,0,0,0,253.558,349.5329Z"/><path d="M267.1118,321.6491h5.3837v16.879h.1265a7.7273,7.7273,0,0,1,4.0855-4.0811,14.7093,14.7093,0,0,1,6.2387-1.3594q6.0806,0,8.6778,3.06,2.5963,3.0615,2.5966,8.625v21.0205h-5.3837V344.154a6.2677,6.2677,0,0,0-1.7735-4.6992,6.688,6.688,0,0,0-4.8769-1.73q-4.7505,0-7.2207,2.751a10.4622,10.4622,0,0,0-2.47,7.2647v18.0527h-5.3837Z"/><path d="M305.0517,315.7761l5.6367,8.7178h-4.2436l-8.2974-8.7178Zm7.727,31.5312,8.8677-1.1132a3,3,0,0,0,2.5332-1.5459,4.6954,4.6954,0,0,0,.38-2.1016q0-5.2544-7.791-5.2549-4.4341,0-6.2071,2.2871a7.0839,7.0839,0,0,0-1.33,3.7715H304.038q.0622-5.9957,3.9273-8.3467a17.0614,17.0614,0,0,1,8.9306-2.35,17.7817,17.7817,0,0,1,9.4375,2.2266,7.1861,7.1861,0,0,1,3.6734,6.7383v18.6093a2.1613,2.1613,0,0,0,.38,1.3916,1.8234,1.8234,0,0,0,1.4566.4629q.3163,0,1.8369-.123v3.957a14.1637,14.1637,0,0,1-3.8638.5557,4.6786,4.6786,0,0,1-4.18-1.9776,8.528,8.528,0,0,1-.95-2.9677,14.2967,14.2967,0,0,1-5.0357,3.833,15.6055,15.6055,0,0,1-6.8721,1.5459,10.744,10.744,0,0,1-7.5371-2.7207,9.1111,9.1111,0,0,1-2.9135-6.8623,8.8915,8.8915,0,0,1,2.7866-6.9248A13.3074,13.3074,0,0,1,312.7787,347.3073Zm1.33-25.72h5.8906l6.2706,8.7178h-5.0674l-4.18-5.75-4.1167,5.75h-5.0674Zm0,40.6807a12.4784,12.4784,0,0,0,5.6372-1.3594,7.3833,7.3833,0,0,0,4.687-7.1719v-4.39a14.4951,14.4951,0,0,1-5.8271,1.6689l-3.3569.4326a13.1522,13.1522,0,0,0-4.5606,1.2374,4.72,4.72,0,0,0-2.5332,4.5126,4.5069,4.5069,0,0,0,1.71,3.6788A6.5032,6.5032,0,0,0,314.1088,362.2683Z"/><path d="M340.5844,333.8288h5.0669v5.07h.127q3.2922-5.811,10.6406-5.8115,6.0806,0,8.6777,3.06,2.5965,3.0615,2.5967,8.625v21.0205H362.31V344.154a6.268,6.268,0,0,0-1.7734-4.6992,6.6881,6.6881,0,0,0-4.877-1.73q-4.7505,0-7.2207,2.751a10.4622,10.4622,0,0,0-2.47,7.2647v18.0527h-5.3838Z"/><path d="M396.4487,333.8288h5.0669v4.6993h.1269a11.9869,11.9869,0,0,1,10.5777-5.44q7.1564,0,8.9936,5.44a11.412,11.412,0,0,1,10.2612-5.44q10.8933,0,10.8941,9.2735v23.4316h-5.3838v-20.959a8.9175,8.9175,0,0,0-1.33-5.2549q-1.33-1.8545-5.0039-1.8545a8.592,8.592,0,0,0-6.27,2.2256,7.9155,7.9155,0,0,0-2.28,5.9356v19.9072h-5.3833v-20.959a8.7643,8.7643,0,0,0-1.3618-5.2549q-1.363-1.8545-4.7822-1.8545a7.8426,7.8426,0,0,0-6.46,2.8125,8.6721,8.6721,0,0,0-2.28,5.3487v19.9072h-5.3838Z"/><path d="M454.34,315.7761l5.6372,8.7178h-4.2437l-8.2973-8.7178Zm23.3721,22.752a15.8952,15.8952,0,0,1,2.2167,5.6875,38.243,38.243,0,0,1,.5069,7.1718H456.1137q.4423,10.8193,9.3106,10.8194a8.9528,8.9528,0,0,0,6.9672-2.7823,10.0178,10.0178,0,0,0,2.09-3.7714h5.4467a10.5824,10.5824,0,0,1-1.4248,3.9882,13.79,13.79,0,0,1-2.7553,3.5547,12.9005,12.9005,0,0,1-6.27,3.2764,20.02,20.02,0,0,1-4.4971.4951,14.1665,14.1665,0,0,1-10.5142-4.39q-4.308-4.5118-4.3071-12.3038,0-7.7269,4.3071-12.6738a14.5086,14.5086,0,0,1,11.3374-4.8838,15.4255,15.4255,0,0,1,6.8409,1.6074A12.722,12.722,0,0,1,477.7119,338.5281Zm-21.4083,8.5312h18.3682a12.8369,12.8369,0,0,0-1.5835-5.6875q-2.28-3.895-7.6006-3.8945a8.5653,8.5653,0,0,0-6.46,2.72A9.7772,9.7772,0,0,0,456.3036,347.0593Zm6.397-25.2861h5.8906l6.334,8.7177h-5.0674l-4.18-5.8115-4.18,5.8115H456.43Z"/><path d="M488.7328,333.8288H493.8v4.6993h.127a11.9867,11.9867,0,0,1,10.5776-5.44q7.1565,0,8.9937,5.44a11.412,11.412,0,0,1,10.2612-5.44q10.8933,0,10.8941,9.2735v23.4316H529.27v-20.959a8.9175,8.9175,0,0,0-1.33-5.2549q-1.33-1.8545-5.0039-1.8545a8.592,8.592,0,0,0-6.2705,2.2256,7.9155,7.9155,0,0,0-2.28,5.9356v19.9072h-5.3833v-20.959a8.7643,8.7643,0,0,0-1.3618-5.2549q-1.363-1.8545-4.7822-1.8545a7.8425,7.8425,0,0,0-6.46,2.8125,8.6723,8.6723,0,0,0-2.28,5.3487v19.9072h-5.3838Z"/><path d="M563.5991,333.8288h5.3837v4.3282h.1265q2.5328-5.0683,10.4512-5.0694,7.22,0,11.1474,4.8223a18.3767,18.3767,0,0,1,3.9273,11.9941q0,7.2334-3.8638,11.9014t-11.0845,4.667a16.3714,16.3714,0,0,1-5.9853-1.1738,9.063,9.063,0,0,1-4.5923-3.7715h-.1265v16.4453h-5.3837Zm25.3354,15.7041a13.5162,13.5162,0,0,0-2.5967-8.3466,8.8452,8.8452,0,0,0-7.5376-3.462q-5.0676,0-7.5371,3.5235a14.4865,14.4865,0,0,0-2.47,8.5322,14.1727,14.1727,0,0,0,2.5649,8.625q2.5657,3.4937,7.7593,3.4932,5.1306,0,7.4741-3.5557A15.6713,15.6713,0,0,0,588.9345,349.5329Z"/><path d="M602.4882,321.6491h5.3838v16.879h.1265a7.7268,7.7268,0,0,1,4.0854-4.0811,14.71,14.71,0,0,1,6.2388-1.3594q6.0805,0,8.6777,3.06,2.5965,3.0615,2.5967,8.625v21.0205h-5.3838V344.154a6.268,6.268,0,0,0-1.7734-4.6992,6.6881,6.6881,0,0,0-4.877-1.73q-4.75,0-7.2207,2.751a10.4626,10.4626,0,0,0-2.47,7.2647v18.0527h-5.3838Z"/><path d="M668.2338,365.6687a7.7805,7.7805,0,0,1-3.8637.8037q-4.5609,0-4.5606-4.8838-4.18,4.8852-11.5273,4.8838a13.09,13.09,0,0,1-7.8228-2.1631q-3.0087-2.1636-3.0083-6.7393a10.0323,10.0323,0,0,1,.8867-4.4209,6.7371,6.7371,0,0,1,2.6284-2.875,15.7983,15.7983,0,0,1,3.4205-1.5761,33.726,33.726,0,0,1,4.1484-.958q1.2027-.2462,2.8506-.4952,1.6456-.246,2.66-.371a19.9512,19.9512,0,0,0,2.1851-.4014,6.0338,6.0338,0,0,0,1.8052-.68,3.5616,3.5616,0,0,0,1.0766-1.082,2.9974,2.9974,0,0,0,.4434-1.67q0-5.3159-7.2837-5.3164-7.8544,0-8.1709,6.0586h-5.3838q.2527-5.5649,4.0537-8.13a17.2149,17.2149,0,0,1,9.8174-2.5655q12.2871,0,12.2876,8.7783v16.4463a10.3344,10.3344,0,0,0,.2534,2.8741q.2527.7119,1.4571.7119a6.4913,6.4913,0,0,0,1.6469-.31Zm-19.0019-45.07h5.8906l6.5874,8.8408h-5.3208l-4.37-5.9346-4.4336,5.9346h-4.8775Zm10.2612,28.6875a10.3533,10.3533,0,0,1-4.2441,1.4218q-2.9774.4952-5.542.711a9.02,9.02,0,0,0-4.5606,1.6377,4.77,4.77,0,0,0-1.9951,4.1425,3.9078,3.9078,0,0,0,1.8052,3.5547,8.3018,8.3018,0,0,0,4.5288,1.1446q4.8765,0,7.4424-2.2881a6.612,6.612,0,0,0,2.5654-4.9463Z"/><path d="M674.7568,333.8288h5.0669v5.07h.1269q3.2922-5.811,10.6406-5.8115,6.0807,0,8.6783,3.06,2.5956,3.0615,2.5966,8.625v21.0205h-5.3842V344.154a6.2677,6.2677,0,0,0-1.7735-4.6992,6.688,6.688,0,0,0-4.8769-1.73q-4.7505,0-7.2207,2.751a10.4622,10.4622,0,0,0-2.47,7.2647v18.0527h-5.3838Z"/><path d="M738.0956,333.8288h6.5235v4.6368h-6.5235v19.8466q0,1.8546.76,2.3487a6.9882,6.9882,0,0,0,3.293.4951h2.4707v4.6367h-4.1172q-4.37,0-6.08-1.3906t-1.71-5.5957V338.4656h-5.5743v-4.6368h5.5743v-9.583h5.3837Z"/><path d="M756.6533,320.5984h6.9033l-8.2969,8.8408H751.206Zm-4.2442,45.1943V333.8288h5.3838v31.9639Z"/><path d="M789.9042,344.0925q-1.33-6.3676-8.1074-6.3682-5.3833,0-7.79,3.5235a15.5536,15.5536,0,0,0-2.4073,8.9648,14.0724,14.0724,0,0,0,2.375,8.3155q2.376,3.37,7.1895,3.37,7.9159,0,8.9941-7.79h5.5108q-.8892,5.9972-4.5606,9.1807-3.6753,3.1845-9.8808,3.1836-7.3491,0-11.3379-4.42t-3.99-11.84q0-7.5424,3.99-12.334,3.99-4.79,11.4639-4.791a16.2951,16.2951,0,0,1,9.6914,2.751,10.9489,10.9489,0,0,1,4.4336,8.2539Z"/><path d="M803.205,321.6491h5.3838v16.879h.127a7.7227,7.7227,0,0,1,4.0849-4.0811,14.7123,14.7123,0,0,1,6.2393-1.3594q6.0806,0,8.6767,3.06,2.5973,3.0615,2.5967,8.625v21.0205h-5.3828V344.154a6.2686,6.2686,0,0,0-1.7744-4.6992,6.6881,6.6881,0,0,0-4.877-1.73q-4.75,0-7.2207,2.751a10.4643,10.4643,0,0,0-2.47,7.2647v18.0527H803.205Z"/><path d="M873.8281,365.7927h-5.7637l-12.1611-31.9639h6.0175l9.1836,26.6465h.127l8.9306-26.6465h5.6368Z"/><path d="M921.2685,365.6687a7.776,7.776,0,0,1-3.8633.8037q-4.56,0-4.5605-4.8838-4.1807,4.8852-11.5274,4.8838a13.0867,13.0867,0,0,1-7.8222-2.1631q-3.0089-2.1636-3.0088-6.7393a10.0323,10.0323,0,0,1,.8867-4.4209,6.7351,6.7351,0,0,1,2.6289-2.875,15.7727,15.7727,0,0,1,3.42-1.5761,33.7324,33.7324,0,0,1,4.1485-.958q1.2025-.2462,2.8505-.4952,1.6466-.246,2.66-.371a19.9789,19.9789,0,0,0,2.1855-.4014,6.04,6.04,0,0,0,1.8047-.68,3.5578,3.5578,0,0,0,1.0772-1.082,2.9982,2.9982,0,0,0,.4433-1.67q0-5.3159-7.2841-5.3164-7.8546,0-8.1709,6.0586h-5.3838q.2519-5.5649,4.0537-8.13a17.2135,17.2135,0,0,1,9.8174-2.5655q12.2871,0,12.288,8.7783v16.4463a10.3354,10.3354,0,0,0,.253,2.8741q.2519.7119,1.457.7119a6.4814,6.4814,0,0,0,1.6465-.31Zm-8.74-16.3828a10.3561,10.3561,0,0,1-4.2442,1.4218q-2.9779.4952-5.542.711a9.0188,9.0188,0,0,0-4.5605,1.6377,4.77,4.77,0,0,0-1.9951,4.1425,3.906,3.906,0,0,0,1.8056,3.5547,8.2978,8.2978,0,0,0,4.5283,1.1446q4.8765,0,7.4424-2.2881a6.6118,6.6118,0,0,0,2.5655-4.9463Zm-15.7715-28.6875h6.9043l5.4463,8.8408h-4.0538Z"/><path d="M950.2138,355.7156a5.3191,5.3191,0,0,0,2.5967,4.7294,12.0789,12.0789,0,0,0,6.207,1.4532q7.9174,0,7.917-4.7608a3.7527,3.7527,0,0,0-1.583-3.122,9.4149,9.4149,0,0,0-3.959-1.67q-2.3745-.4629-5.1621-1.1435t-5.1621-1.4834a8.6055,8.6055,0,0,1-3.958-2.7207,7.3119,7.3119,0,0,1-1.584-4.8223A7.5146,7.5146,0,0,1,949.2,335.406a15.6741,15.6741,0,0,1,8.5508-2.3184q6.0162,0,9.5322,2.2559,3.5157,2.2587,3.8955,7.76h-5.3837a4.791,4.791,0,0,0-2.375-4.1113,10.2466,10.2466,0,0,0-5.2256-1.2676,11.8268,11.8268,0,0,0-4.9405.9268,3.22,3.22,0,0,0-2.0273,3.1533,3.3269,3.3269,0,0,0,.19,1.1436,2.4335,2.4335,0,0,0,.6016.9277,9.341,9.341,0,0,0,.8555.7422,5.1824,5.1824,0,0,0,1.2031.6484q.76.3107,1.33.5264a14.3574,14.3574,0,0,0,1.5517.4629q.9815.249,1.584.3711.6006.1245,1.71.3711,1.1073.2475,1.6777.3711a31.3625,31.3625,0,0,1,3.9912,1.082,19.5786,19.5786,0,0,1,3.3252,1.5762,6.5273,6.5273,0,0,1,2.5332,2.6279,8.1,8.1,0,0,1,.8555,3.8018,8.4536,8.4536,0,0,1-2.1856,5.997,11.004,11.004,0,0,1-5.1308,3.1846,24.2624,24.2624,0,0,1-6.6182.834,17.2045,17.2045,0,0,1-9.8174-2.5654q-3.8013-2.565-4.0537-8.1914Z"/><path d="M1009.1181,361.5886v4.08a7.5171,7.5171,0,0,1-3.8633.8662q-4.56,0-4.5605-4.9463-4.2437,4.9467-11.5274,4.9463a12.9528,12.9528,0,0,1-7.8222-2.1953q-3.0089-2.1929-3.0088-6.77a10.0323,10.0323,0,0,1,.8867-4.4209,6.7351,6.7351,0,0,1,2.6289-2.875,15.7749,15.7749,0,0,1,3.42-1.5761,33.7324,33.7324,0,0,1,4.1485-.958q1.2025-.2462,2.8505-.4952,1.6466-.246,2.66-.371a19.9789,19.9789,0,0,0,2.1855-.4014,6.04,6.04,0,0,0,1.8047-.68,3.5578,3.5578,0,0,0,1.0772-1.082,2.9982,2.9982,0,0,0,.4433-1.67q0-5.3159-7.2841-5.3164-7.8546,0-8.1709,6.0586h-5.3838q.2519-5.5649,4.0537-8.13a17.2137,17.2137,0,0,1,9.8174-2.5655q12.2871,0,12.2881,8.7783v16.4463a10.3367,10.3367,0,0,0,.2529,2.8741q.252.7119,1.457.7119A6.4814,6.4814,0,0,0,1009.1181,361.5886Zm-25.7148-40.8662h3.167q1.5189,5.1328,7.0937,5.1308a5.472,5.472,0,0,0,3.8633-1.2363,10.8658,10.8658,0,0,0,2.4072-3.8945h3.2305a10.342,10.342,0,0,1-3.294,6.2754,9.8667,9.8667,0,0,1-6.7138,2.2558Q984.6684,329.2536,983.4033,320.7224Zm16.9746,33.9414v-5.3779a10.3561,10.3561,0,0,1-4.2442,1.4218q-2.9779.4952-5.542.711a9.0188,9.0188,0,0,0-4.56,1.6377,4.77,4.77,0,0,0-1.9951,4.1425,3.906,3.906,0,0,0,1.8056,3.5547,8.298,8.298,0,0,0,4.5284,1.1446q4.8764,0,7.4423-2.2881A6.6118,6.6118,0,0,0,1000.3779,354.6638Z"/><path d="M1015.6415,333.8288h5.0674v5.07h.126q3.293-5.811,10.6416-5.8115,6.0805,0,8.6768,3.06,2.5971,3.0615,2.5966,8.625v21.0205h-5.3828V344.154a6.2682,6.2682,0,0,0-1.7744-4.6992,6.688,6.688,0,0,0-4.8769-1.73q-4.75,0-7.2207,2.751a10.4643,10.4643,0,0,0-2.47,7.2647v18.0527h-5.3838Z"/><path d="M1078.9794,333.8288h6.5244v4.6368h-6.5244v19.8466q0,1.8546.7608,2.3487a6.9824,6.9824,0,0,0,3.2929.4951h2.4707v4.6367h-4.1171q-4.3711,0-6.0811-1.3906t-1.71-5.5957V338.4656h-5.5732v-4.6368h5.5732v-9.583h5.3838Z"/><path d="M1098.6767,328.08h-5.3838v-6.4307h5.3838Zm-5.3838,5.749h5.3838v31.9639h-5.3838Z"/><path d="M1108.5566,333.8288h5.0674v5.07h.1259q3.2931-5.811,10.6416-5.8115,6.0807,0,8.6768,3.06,2.5971,3.0615,2.5967,8.625v21.0205h-5.3828V344.154a6.2686,6.2686,0,0,0-1.7744-4.6992,6.6882,6.6882,0,0,0-4.877-1.73q-4.75,0-7.2207,2.751a10.4643,10.4643,0,0,0-2.47,7.2647v18.0527h-5.3838Z"/><path d="M1171.8954,333.8288h6.5245v4.6368h-6.5245v19.8466q0,1.8546.7608,2.3487a6.9826,6.9826,0,0,0,3.293.4951h2.4707v4.6367h-4.1172q-4.3711,0-6.0811-1.3906t-1.71-5.5957V338.4656h-5.5733v-4.6368h5.5733v-9.583h5.3837Z"/><path d="M1185.8925,321.6491h5.3838v16.879h.127a7.7227,7.7227,0,0,1,4.0849-4.0811,14.7123,14.7123,0,0,1,6.2393-1.3594q6.0805,0,8.6767,3.06,2.5973,3.0615,2.5967,8.625v21.0205h-5.3828V344.154a6.2686,6.2686,0,0,0-1.7744-4.6992,6.6881,6.6881,0,0,0-4.877-1.73q-4.75,0-7.2207,2.751a10.4643,10.4643,0,0,0-2.47,7.2647v18.0527h-5.3838Z"/><path d="M1223.832,315.7761l5.6377,8.7178h-4.2442l-8.2969-8.7178Zm7.7275,31.5312,8.8672-1.1132a3.0028,3.0028,0,0,0,2.5342-1.5459,4.7031,4.7031,0,0,0,.38-2.1016q0-5.2544-7.7911-5.2549-4.434,0-6.207,2.2871a7.0839,7.0839,0,0,0-1.33,3.7715h-5.1933q.0615-5.9957,3.9267-8.3467a17.062,17.062,0,0,1,8.9307-2.35,17.78,17.78,0,0,1,9.4375,2.2266,7.1866,7.1866,0,0,1,3.6738,6.7383v18.6093a2.1584,2.1584,0,0,0,.38,1.3916,1.8237,1.8237,0,0,0,1.457.4629c.21,0,.8233-.04,1.836-.123v3.957a14.1547,14.1547,0,0,1-3.8633.5557,4.6791,4.6791,0,0,1-4.1807-1.9776,8.5533,8.5533,0,0,1-.95-2.9677,14.2905,14.2905,0,0,1-5.0351,3.833,15.6071,15.6071,0,0,1-6.8721,1.5459,10.744,10.744,0,0,1-7.5371-2.7207,9.1131,9.1131,0,0,1-2.9141-6.8623,8.8918,8.8918,0,0,1,2.7871-6.9248A13.3065,13.3065,0,0,1,1231.56,347.3073Zm1.33-25.72h5.8906l6.2705,8.7178h-5.0674l-4.18-5.75-4.1171,5.75h-5.0674Zm0,40.6807a12.4764,12.4764,0,0,0,5.6367-1.3594,7.383,7.383,0,0,0,4.6875-7.1719v-4.39a14.4956,14.4956,0,0,1-5.8271,1.6689l-3.3565.4326a13.1489,13.1489,0,0,0-4.56,1.2374,4.72,4.72,0,0,0-2.5342,4.5126,4.5066,4.5066,0,0,0,1.7109,3.6788A6.5012,6.5012,0,0,0,1232.89,362.2683Z"/><path d="M1286.4736,365.7927h-5.0664v-5.0693h-.127q-3.2944,5.7495-10.6406,5.749-6.1451,0-8.709-3.0293t-2.5654-8.5938V333.8288h5.3838v21.6387a6.2627,6.2627,0,0,0,1.7734,4.6992,6.6812,6.6812,0,0,0,4.877,1.7315q4.75,0,7.2207-2.752a10.4617,10.4617,0,0,0,2.4707-7.2646V333.8288h5.3828Z"/><path class="cls-2" d="M57.0376,112.339c0,3.9508-.1024,7.723.0412,11.4858a3.905,3.905,0,0,1-2.4052,4.1905C42.07,134.6661,29.55,141.4767,16.9989,148.2279c-.7369.3964-1.5081.7293-2.4978,1.2041V78.22c1.72-.0823,3.4794-.2248,5.24-.2412,12.8851-.1205,25.77-.2043,38.6555-.3243,5.5824-.052,11.1643-.1657,16.7464-.2453,12.5965-.18,25.07.7084,37.1643,4.5549,10.9583,3.485,20.5679,9.1146,27.7529,18.2836a66.0282,66.0282,0,0,1,12.4736,27.9578,133.0378,133.0378,0,0,1,2.4272,25.8493c.0678,9.1814-.1369,18.3673-.3733,27.5474a94.283,94.283,0,0,1-2.2985,18.8838c-5.1986,22.4258-18.7727,37.1-40.9068,43.7336a98.8547,98.8547,0,0,1-28.9794,4.09c-21.5593-.1053-43.1174-.4629-64.6759-.7261-1.0235-.0125-2.0461-.1081-3.2288-.1739V198.2905L57.02,178.6747v35.4271c2.6575.1733,5.1166.47,7.5754.4679,6.6952-.005,13.3946-.0166,20.0837-.2607a44.2046,44.2046,0,0,0,12.347-2.3964A18.4679,18.4679,0,0,0,109.22,199.9294a47.6058,47.6058,0,0,0,3.0011-15.3468q.224-20.8559-.0373-41.7154a56.11,56.11,0,0,0-2.4705-15.202c-2.24-7.5571-7.112-12.2878-14.7408-14.3668a72.874,72.874,0,0,0-19.9064-2.1956c-5.4035.0445-10.8035.5427-16.2039.8594A14.6428,14.6428,0,0,0,57.0376,112.339Z"/><path class="cls-2" d="M590.2777,247.6272H553.4819c-.498-1.917-.6721-165.26-.1617-169.149l36.8806-6.22v57.973c1.1521-.3057,2.0165-.5167,2.87-.7644a84.3281,84.3281,0,0,1,40.2526-2.1293,50.9467,50.9467,0,0,1,10.5388,3.2662c8.8672,3.8812,13.94,10.8457,15.49,20.3661a141.0376,141.0376,0,0,1,1.5566,22.58q.0355,35.5436.0088,71.0873v2.9507H623.3664v-3.0665q0-36.4452-.0252-72.89a25.3394,25.3394,0,0,0-.5984-5.859,11.1455,11.1455,0,0,0-10.1292-8.529,36.1277,36.1277,0,0,0-20.2059,3.87,3.3988,3.3988,0,0,0-2.1706,3.5391q.0888,39.7931.0406,79.5864Z"/><path class="cls-2" d="M495.2469,247.3054H452.1726V111.3768H412.4247V78.6439h123.29v32.6248H496.1032c-.2337.2513-.294.3119-.3492.3768a.6357.6357,0,0,0-.1509.2012,3.0066,3.0066,0,0,0-.0908.5056c-.0174.17-.0159.3429-.0182.5145-.0036.2575-.0042.515-.0042.7726q-.0073,66.312-.0169,132.624a3.3159,3.3159,0,0,1-.0579.51C495.4025,246.8546,495.3667,246.9319,495.2469,247.3054Z"/><path class="cls-2" d="M395.1447,247.3179H364.269c-1.0919-2.2191-2.2511-4.5752-3.5027-7.1191-2.3455,1.0021-4.7791,2.03-7.2036,3.08-12.88,5.5732-26.3235,6.97-40.1158,5.0818-10.3473-1.4167-17.7834-7.3844-23.0806-16.0743-2.1657-3.5526-2.6706-7.7583-3.2779-11.839a163.1151,163.1151,0,0,1-1.4341-23.6279c-.0586-22.2393-.02-44.4788-.02-66.7182v-2.69h37.8118v3.322q0,35.42.0066,70.84c.0006,1.3717.0308,2.75.1594,4.114.6041,6.41,4.7684,10.8832,11.1458,11.61a34.7041,34.7041,0,0,0,21.3986-4.13c.5155-.2892.98-.6688,1.6389-1.124v-84.33c2.049-.5742,32.7889-.7733,37.1752-.3011C395.4694,129.24,395.667,242.7786,395.1447,247.3179Z"/><path class="cls-2" d="M901.5435,247.3058c-.8164.0422-1.491.1068-2.1657.1073-8.7642.0069-17.5289-.0447-26.2921.0474-1.7012.0178-2.7572-.44-3.4136-2.01-.723-1.7291-1.5634-3.4092-2.4332-5.2844-2.1739.9311-4.39,1.8281-6.562,2.8195-10.872,4.9618-22.3528,6.4536-34.1735,6.0573-5.7229-.1919-11.2748-1.0985-16.4077-3.8193a33.45,33.45,0,0,1-13.3291-12.9347c-2.1494-3.6732-2.69-7.9321-3.3188-12.0949a156.56,156.56,0,0,1-1.3757-22.8577c-.084-22.41-.0312-44.82-.0253-67.23,0-.8418.07-1.6837.1144-2.6943h37.7276c0,1.0389,0,2.04,0,3.0409q0,35.6758.0035,71.3517c0,1.2013.0023,2.4061.0861,3.6034.4525,6.4627,4.7,11.1405,11.1546,11.8839a34.5857,34.5857,0,0,0,21.6233-4.2427c.4391-.2508.8279-.5894,1.4351-1.0281v-84.28c2.0419-.6095,32.63-.82,37.17-.3253C901.853,129.2659,902.0539,242.6257,901.5435,247.3058Z"/><path class="cls-3" d="M1139.4584,247.3159h-37.251c0-1.0589,0-2.0521,0-3.0454q0-36.1865-.012-72.3728a29.9353,29.9353,0,0,0-.2869-4.3573c-.9343-6.2977-5.2089-10.261-11.5856-10.8089a37.0892,37.0892,0,0,0-19.4692,3.8174,3.362,3.362,0,0,0-2.2121,3.5269c.083,15.8821.0477,31.7648.0476,47.6473v35.2c-1.95.5966-33.2476.7679-36.9661.23V127.0693c.7793-.0519,1.527-.144,2.2748-.1449,8.6772-.01,17.3549.0441,26.0311-.05,1.7352-.0187,2.6844.48,3.278,2.1165.6938,1.9123,1.6265,3.738,2.4959,5.6925.6671-.2852,1.2248-.4784,1.7405-.7506,13.8954-7.3338,28.6581-9.527,44.1882-7.7728,11.9809,1.3534,24.3335,11.5738,26.1685,25.6916a185.58,185.58,0,0,1,1.5539,23.8708q.0166,34.5123.0046,69.0245Z"/><path class="cls-3" d="M1351.8549,186.8619c0,5.58.1541,11.1655-.04,16.7389a54.93,54.93,0,0,1-4.1421,19.5365,37.7526,37.7526,0,0,1-21.9058,21.2782,65.72,65.72,0,0,1-19.0425,4.2125c-10.5024.8013-20.9547.5634-31.1716-2.3873-9.6268-2.78-17.74-7.786-23.3035-16.3478a47.0707,47.0707,0,0,1-7.6258-22.9533c-.3118-4.8775-.37-9.778-.3579-14.6678.0191-8.153.1075-16.3077.3223-24.4577a44.4329,44.4329,0,0,1,2.39-12.6044c4.5023-13.7931,14.2693-22.0978,27.7866-26.3585a79.848,79.848,0,0,1,27.4705-3.4189c6.9788.2843,13.8794.9961,20.51,3.3441,15.812,5.5994,25.21,16.7022,28.0974,33.1776a93.7725,93.7725,0,0,1,1.0565,12.2886c.174,4.2.0387,8.4123.0387,12.6192Zm-70.2095.5958h-.0042c0,1.03-.0038,2.0592,0,3.0887.02,4.8042-.108,9.6149.1,14.4111.2964,6.8493,3.9157,11.2689,10.2711,12.7693a26.048,26.048,0,0,0,12.0036.05,13.46,13.46,0,0,0,10.7556-13.544c.0142-1.7157.0289-3.4315.0291-5.1473.0008-9.0075.1125-18.0175-.078-27.021a28.14,28.14,0,0,0-1.566-7.7554,9.3521,9.3521,0,0,0-5.9537-6.0043,26.35,26.35,0,0,0-16.189-.5825,12.3226,12.3226,0,0,0-7.9239,6.5251,15.9339,15.9339,0,0,0-1.4361,7.5092C1281.625,176.99,1281.6454,182.224,1281.6454,187.4577Z"/><path class="cls-2" d="M739.7946,179.5755c.0874-4.97.1761-9.4826-.8514-13.968a7.6825,7.6825,0,0,0-5.2587-5.8137A27.27,27.27,0,0,0,724.33,158.23c-11.1676-.0415-22.3355-.0286-33.5032-.0362-.9323-.0006-1.8646,0-2.7566,0-.48-2.3293,1.6646-24.2744,2.9636-30.69.6927-.044,1.4408-.1325,2.1888-.133,12.1129-.0085,24.2266-.0938,36.3384.0247,8.3463.0816,16.6493.7762,24.6415,3.4536a49.3035,49.3035,0,0,1,5.947,2.4358,25.8294,25.8294,0,0,1,13.69,15.63,63.6688,63.6688,0,0,1,3.0336,16.1386c.23,3.5946.3027,7.2044.3068,10.8076q.0392,33.995.0132,67.99v3.43h-30.895c-.6168-2.23-1.247-4.5082-1.9332-6.9892-.6989.3028-1.385.5675-2.0427.89a72.413,72.413,0,0,1-34.849,7.666c-9.8752-.3388-18.2552-3.8056-24.6038-11.5291a33.5106,33.5106,0,0,1-6.7717-15.3969,49.0549,49.0549,0,0,1,.5277-20.6916c2.7642-11.5462,11.801-18.7137,23.537-20.3825a178.0349,178.0349,0,0,1,22.3607-1.2585c4.7237-.0738,9.4495-.0139,14.1744-.014Zm-.1176,38.1689v-13.349a8.7859,8.7859,0,0,0-1.1495-.171c-4.6392-.0083-9.2818-.1091-13.9162.0393a55.5,55.5,0,0,0-7.6549.9331,4.3346,4.3346,0,0,0-3.609,2.9509,13.2724,13.2724,0,0,0,.3951,10.0327,7.1925,7.1925,0,0,0,4.61,3.8491,15.2963,15.2963,0,0,0,7.3946.3572A57.0977,57.0977,0,0,0,739.677,217.7444Z"/><path class="cls-2" d="M233.3578,179.5755c.2261-5.2838.267-10.22-1.1405-15.064-.7489-2.5777-2.712-3.8825-5.0457-4.7439a30.4162,30.4162,0,0,0-10.6442-1.5708q-16.1069-.0092-32.2135-.003c-.9242,0-1.8484,0-3.167,0,1.1146-10.4062,2.1963-20.5056,3.302-30.83h3.024c11.6828,0,23.3661-.0688,35.0482.023,8.608.0675,17.1656.7409,25.4073,3.5005a48.2529,48.2529,0,0,1,5.9351,2.4624,25.7567,25.7567,0,0,1,13.5389,15.4445,66.2266,66.2266,0,0,1,3.128,16.9038c.17,2.567.2061,5.1467.2077,7.7206q.0224,35.2809.0087,70.5619c0,1.019,0,2.038,0,3.2465H239.8674c-.6288-2.3-1.2538-4.5868-1.9078-6.9792-1.548.7114-3.02,1.3889-4.4923,2.0642a70.7257,70.7257,0,0,1-33.2921,6.4909c-9.4867-.45-17.5071-4.0021-23.6247-11.3783a33.1445,33.1445,0,0,1-6.7708-15.1183,48.878,48.878,0,0,1,.542-21.4428c2.8349-11.33,11.8053-18.3253,23.302-19.9963a173.4527,173.4527,0,0,1,22.3583-1.278c4.8094-.074,9.6208-.0141,14.4314-.0142Zm-.0344,24.88a6.124,6.124,0,0,0-1.0994-.2242c-4.7971-.0058-9.5955-.0593-14.3906.0429a36.8753,36.8753,0,0,0-6.1166.6746c-3.8061.7285-4.9733,1.9315-5.3964,5.7619-.7738,7.0037,1.9316,12.249,10.4778,11.893,5.92-.2467,11.2613-2.5526,16.5252-4.89Z"/><path class="cls-3" d="M1209.18,247.3072h-36.7231c-.177-2.9544-.0546-5.926-.0765-8.889-.0215-2.9184-.0047-5.837-.0047-8.7555V167.3443c0-2.8933,0-5.7865,0-8.9468h-17.87V127.4056h17.7374c.0518-1.0724.1248-1.901.1264-2.73q.0158-8.3692.0049-16.7384a58.0724,58.0724,0,0,1,1.5083-13.2658c3.0286-12.9976,11.0256-21.04,24.0679-23.8989a49.5946,49.5946,0,0,1,9.6866-1.1871c9.1026-.1586,18.21-.0607,27.3149-.0516.6639.0007,1.3278.1,2.1292.165v30.46c-.8313.0576-1.6488.16-2.4666.1633-4.5526.0161-9.1055-.0064-13.6579.0172a27.7682,27.7682,0,0,0-3.8546.2087q-6.761.987-7.5577,7.7911c-.2167,1.8715-.3205,3.7631-.3494,5.6474-.0538,3.5186-.0223,7.0386-.01,10.5579.0029.8393.0686,1.6784.117,2.7784h28.2431c-.9178,10.4238-2.2,20.5039-3.331,30.9506-8.2287.1887-16.43-.0248-24.9875.1237-.0967,6.0669-.0324,11.9536-.0441,17.838-.0119,5.9228-.0028,11.8456-.0028,17.7684v53.303Z"/><path class="cls-3" d="M1035.8608,59.8644a41.1842,41.1842,0,1,1-82.3672-.4434c.176-24.8184,20.8386-41.4,42.062-40.9758A41.2954,41.2954,0,0,1,1035.8608,59.8644Z"/><path class="cls-3" d="M982.1787,132.5212h25.01c.2282,2.4891.4833,4.9336.672,7.3831q1.7784,23.0941,3.53,46.19c.7649,10.0941,1.49,20.1912,2.2642,30.2846.9442,12.3172,1.9467,24.63,2.8511,36.95a16.27,16.27,0,0,1-.3511,4.8291,22.1313,22.1313,0,0,1-43.1008-.7434,23.7338,23.7338,0,0,1-.0336-6.1471q1.4623-19.892,3.0283-39.7762,1.679-21.682,3.3813-43.3622c.7811-10.1791,1.51-20.3622,2.2728-30.5427C981.824,135.9682,982.0049,134.3538,982.1787,132.5212Z"/><path class="cls-3" d="M917.6993,231.2565a58.9783,58.9783,0,0,1,1.2269-7.3118c1.5994-5.4357,5.3987-8.6556,10.9646-9.579a48.9723,48.9723,0,0,1,15.1194-.0518c6.2987.9163,10.4517,4.7718,11.6964,10.9785a32.38,32.38,0,0,1-.1078,12.5166,11.7346,11.7346,0,0,1-8.2813,9.3352,32.6547,32.6547,0,0,1-20.9849.1373c-5.41-1.7565-8.3639-5.7444-9.0642-11.37-.19-1.5282-.2506-3.0726-.3706-4.61Z"/><path class="cls-3" d="M994.6976,128.3424a11.732,11.732,0,1,1,11.7244-11.7984A11.6966,11.6966,0,0,1,994.6976,128.3424Z"/></svg>